<svg width="28" height="21" viewBox="0 0 28 21" fill="none" xmlns="http://www.w3.org/2000/svg">
<path d="M27.6718 1.91294L9.75259 19.8321C9.64858 19.9363 9.52506 20.0189 9.3891 20.0752C9.25314 20.1316 9.1074 20.1606 8.96022 20.1606C8.81304 20.1606 8.66731 20.1316 8.53135 20.0752C8.39539 20.0189 8.27187 19.9363 8.16786 19.8321L0.328208 11.9925C0.11806 11.7823 0 11.4973 0 11.2001C0 10.9029 0.11806 10.6179 0.328208 10.4078C0.538356 10.1976 0.823378 10.0796 1.12057 10.0796C1.41777 10.0796 1.70279 10.1976 1.91294 10.4078L8.96022 17.4564L26.0871 0.328208C26.2972 0.118059 26.5822 -2.21427e-09 26.8794 0C27.1766 2.21427e-09 27.4616 0.118059 27.6718 0.328208C27.8819 0.538356 28 0.823378 28 1.12057C28 1.41777 27.8819 1.70279 27.6718 1.91294Z" fill="#FAFAFA"/>
</svg>
