<svg width="64" height="47" viewBox="0 0 64 47" fill="none" xmlns="http://www.w3.org/2000/svg">
<path d="M21.564 42.076L17.388 36.928C22.86 35.56 26.244 31.168 26.244 24.94C26.244 17.416 21.276 12.52 13.644 12.52C6.084 12.52 1.08 17.416 1.08 24.94C1.08 32.284 5.868 37.144 13.176 37.36L16.668 42.076H21.564ZM13.644 33.616C7.92 33.616 5.184 30.952 5.184 24.94C5.184 18.928 7.92 16.228 13.644 16.228C19.368 16.228 22.14 18.928 22.14 24.94C22.14 30.952 19.368 33.616 13.644 33.616ZM39.2324 37.36C46.3604 37.36 49.3484 33.976 49.3484 30.304C49.3484 26.776 46.9724 24.58 42.1484 23.716L36.2804 22.708C33.4364 22.096 32.2124 21.412 32.2124 19.324C32.2124 17.164 33.9404 16.084 38.3324 16.084C43.3364 16.084 45.1004 17.56 45.1004 20.512V20.98H48.9524V20.764C48.9524 16.048 45.7484 12.52 38.6924 12.52C31.2044 12.52 28.3244 16.048 28.3244 19.54C28.3244 23.5 31.2044 25.372 35.2724 26.092L41.1764 27.064C44.2364 27.64 45.4604 28.432 45.4604 30.52C45.4604 32.788 43.8404 33.796 39.2324 33.796C33.9404 33.796 32.2484 32.356 32.2484 29.476V28.9H28.3604V29.116C28.3604 34.192 32.0324 37.36 39.2324 37.36Z" fill="white"/>
<path d="M62.9 19V17.06H57.16L53.92 17.28C53.92 15.76 54.54 15.12 56.34 14.5L59.16 13.64C61.52 12.92 62.94 11.76 62.94 9.56C62.94 7.2 61.34 5.4 57.54 5.4C53.36 5.4 51.66 7.64 51.66 10.12V10.32H53.78V10.08C53.78 8.32 54.78 7.38 57.46 7.38C59.86 7.38 60.78 8.1 60.78 9.52C60.78 10.7 60.22 11.24 58.62 11.82L55.42 12.92C52.66 13.86 51.68 15.1 51.68 17.58V19H62.9Z" fill="white"/>
</svg>
